<svg xmlns="http://www.w3.org/2000/svg" width="96.758" height="28"><g fill="#1065ed"><path data-name="cube" d="m12.244 8.327-4.557 2.636 4.557 2.629 4.559-2.633-4.559-2.631Zm.469 11.335ZM7.222 17.03l4.558 2.631v-5.264l-4.56-2.63v5.265ZM17.002 17.028l-4.29 2.634v-5.263l4.29-2.475Z"></path></g><g fill="#203b54"><path data-name="Icon simple-nintendogamecube" d="m3.862 19.012 7.856 4.531V28L0 21.241V7.719l3.862 2.229v9.065Zm8.411-14.563 7.381 4.6 3.862-2.228L12.273 0 7.247 3.125v4.6Zm8.407 14.563v-4.606l-.019-4.442 3.883-2.241v13.52L12.833 28v-4.45l7.847-4.536ZM3.796 4.901.576 6.755l3.278 1.89Z"></path></g><path fill="#203b54" data-name="Path 54" d="M44.622 14.927q0-2.736-2.014-2.736a3.341 3.341 0 0 0-.865.114 2.46 2.46 0 0 0-.694.285v5.149q.209.038.532.067t.7.028a2.034 2.034 0 0 0 1.748-.8 3.468 3.468 0 0 0 .593-2.107ZM47.51 15a6.317 6.317 0 0 1-.351 2.166 4.573 4.573 0 0 1-1.017 1.656 4.467 4.467 0 0 1-1.634 1.054 6.138 6.138 0 0 1-2.2.371q-.519 0-1.077-.047t-1.102-.124q-.54-.076-1.04-.176t-.87-.223V5.712l2.831-.456v4.978a5.3 5.3 0 0 1 .988-.323 5.074 5.074 0 0 1 1.1-.114 4.511 4.511 0 0 1 1.881.37 3.683 3.683 0 0 1 1.37 1.055 4.736 4.736 0 0 1 .836 1.643A7.493 7.493 0 0 1 47.51 15Zm1.71.076a6.112 6.112 0 0 1 .409-2.327 4.99 4.99 0 0 1 1.073-1.663 4.466 4.466 0 0 1 1.53-1.007 4.789 4.789 0 0 1 1.776-.342 4.415 4.415 0 0 1 3.363 1.3 5.362 5.362 0 0 1 1.235 3.833q0 .247-.019.542t-.038.522h-6.422a1.881 1.881 0 0 0 .817 1.387 3.284 3.284 0 0 0 1.938.513 8.181 8.181 0 0 0 1.529-.142 5.774 5.774 0 0 0 1.226-.352l.38 2.3a3.91 3.91 0 0 1-.608.228 7.956 7.956 0 0 1-.846.2q-.465.085-1 .143a9.981 9.981 0 0 1-1.064.057 6.3 6.3 0 0 1-2.346-.4 4.57 4.57 0 0 1-1.653-1.093 4.336 4.336 0 0 1-.969-1.644 6.51 6.51 0 0 1-.311-2.052ZM55.87 14a2.922 2.922 0 0 0-.123-.7 1.755 1.755 0 0 0-.323-.608 1.72 1.72 0 0 0-.551-.437 1.8 1.8 0 0 0-.826-.171 1.9 1.9 0 0 0-.817.161 1.688 1.688 0 0 0-.57.428 1.913 1.913 0 0 0-.352.617 4.052 4.052 0 0 0-.181.71Zm4.919-3.652a15.779 15.779 0 0 1 1.862-.389 15.3 15.3 0 0 1 2.394-.181 5.831 5.831 0 0 1 2.118.333 3.182 3.182 0 0 1 1.34.94 3.665 3.665 0 0 1 .7 1.444 7.683 7.683 0 0 1 .209 1.862V20h-2.823v-5.3a3.816 3.816 0 0 0-.361-1.938 1.473 1.473 0 0 0-1.349-.57q-.3 0-.646.028t-.608.067V20h-2.836Zm15.01 7.676q.418 0 .8-.019a5.552 5.552 0 0 0 .608-.057V15.8q-.171-.038-.513-.076a5.713 5.713 0 0 0-.627-.038 5.611 5.611 0 0 0-.75.048 1.961 1.961 0 0 0-.618.181 1.06 1.06 0 0 0-.418.361 1.006 1.006 0 0 0-.152.57.971.971 0 0 0 .446.922 2.467 2.467 0 0 0 1.226.256Zm-.228-8.284a6.556 6.556 0 0 1 2.09.285 3.246 3.246 0 0 1 1.34.817 3 3 0 0 1 .712 1.292 6.373 6.373 0 0 1 .209 1.691v5.89q-.608.133-1.691.314a16.249 16.249 0 0 1-2.622.181 8.313 8.313 0 0 1-1.755-.172 3.814 3.814 0 0 1-1.359-.561 2.565 2.565 0 0 1-.874-1.016 3.509 3.509 0 0 1-.3-1.539 2.916 2.916 0 0 1 .351-1.482 2.705 2.705 0 0 1 .941-.969 4.25 4.25 0 0 1 1.349-.523 7.568 7.568 0 0 1 1.577-.161 8.953 8.953 0 0 1 .979.047 4.356 4.356 0 0 1 .694.124v-.266a1.567 1.567 0 0 0-.437-1.159 2.116 2.116 0 0 0-1.52-.437 9.679 9.679 0 0 0-1.425.1 6.113 6.113 0 0 0-1.216.295l-.361-2.28q.247-.076.618-.161t.807-.152q.437-.066.922-.114t.973-.044Zm10.908 10.45a7.073 7.073 0 0 1-2-.266 2.969 2.969 0 0 1-1.221-.694 2.3 2.3 0 0 1-.608-1.083 5.843 5.843 0 0 1-.161-1.434v-11l2.831-.456v10.886a3.73 3.73 0 0 0 .057.684 1.18 1.18 0 0 0 .219.513 1.16 1.16 0 0 0 .465.342 2.551 2.551 0 0 0 .817.171Zm4.845-.19h-2.835v-9.994h2.831Zm.265-12.882a1.554 1.554 0 0 1-.5 1.226 1.732 1.732 0 0 1-1.187.446 1.732 1.732 0 0 1-1.187-.446 1.554 1.554 0 0 1-.5-1.226 1.554 1.554 0 0 1 .5-1.225 1.732 1.732 0 0 1 1.188-.447 1.732 1.732 0 0 1 1.188.447 1.554 1.554 0 0 1 .498 1.225ZM96.758 18.5a1.59 1.59 0 0 1-.542 1.3 1.875 1.875 0 0 1-1.227.447 1.875 1.875 0 0 1-1.223-.447 1.59 1.59 0 0 1-.542-1.3 1.59 1.59 0 0 1 .542-1.3 1.875 1.875 0 0 1 1.223-.449 1.875 1.875 0 0 1 1.225.446 1.59 1.59 0 0 1 .544 1.303Z"></path></svg>